<svg xmlns="http://www.w3.org/2000/svg" width="920" height="486" viewBox="0 0 920 486" font-family="'Segoe UI', Helvetica, Arial, sans-serif">
  <!-- card -->
  <rect x="20" y="20" width="880" height="446" rx="12" fill="#0f172a" stroke="#1e293b"/>
  <!-- title bar -->
  <path d="M20,32 a12,12 0 0 1 12,-12 h856 a12,12 0 0 1 12,12 v22 h-880 z" fill="#1e293b"/>
  <circle cx="42" cy="43" r="6" fill="#ef4444"/>
  <circle cx="62" cy="43" r="6" fill="#eab308"/>
  <circle cx="82" cy="43" r="6" fill="#22c55e"/>
  <text x="460" y="48" text-anchor="middle" font-size="13" fill="#94a3b8" font-family="'SFMono-Regular', Consolas, monospace">project structure</text>

  <g font-family="'SFMono-Regular', Consolas, monospace" font-size="15">
    <!-- tree column -->
    <g>
      <text x="44" y="98"  fill="#60a5fa" font-weight="700">ruckus1-mcp/</text>
      <text x="44" y="128" fill="#60a5fa">├─ src/</text>
      <text x="44" y="158" fill="#e2e8f0">│  ├─ mcpServer.ts</text>
      <text x="44" y="188" fill="#60a5fa">│  ├─ services/</text>
      <text x="44" y="218" fill="#e2e8f0">│  │  ├─ ruckusApiService.ts</text>
      <text x="44" y="248" fill="#e2e8f0">│  │  └─ tokenService.ts</text>
      <text x="44" y="278" fill="#60a5fa">│  ├─ types/</text>
      <text x="44" y="308" fill="#60a5fa">│  └─ utils/</text>
      <text x="44" y="338" fill="#60a5fa">├─ assets/</text>
      <text x="44" y="368" fill="#60a5fa">├─ cicd/tests/</text>
      <text x="44" y="398" fill="#60a5fa">├─ docs/</text>
      <text x="44" y="428" fill="#e2e8f0">└─ README.md</text>
    </g>
    <!-- comment column -->
    <g fill="#94a3b8" font-size="13.5">
      <text x="430" y="128">MCP server (TypeScript)</text>
      <text x="430" y="158">entry — tool registration + routing</text>
      <text x="430" y="218">RUCKUS One API calls + async polling</text>
      <text x="430" y="248">OAuth2 token + JWT cache</text>
      <text x="430" y="278">API request/response interfaces</text>
      <text x="430" y="308">config · errors · token cache · validation</text>
      <text x="430" y="338">README diagrams (SVG + PNG)</text>
      <text x="430" y="368">integration tests (framework + YAML cases)</text>
      <text x="430" y="398">architecture · stories · guides</text>
    </g>
  </g>
</svg>
